<svg id="eBEcyWL1vQr1" xmlns="http://www.w3.org/2000/svg" xmlns:xlink="http://www.w3.org/1999/xlink" viewBox="0 0 3840 2160" shape-rendering="geometricPrecision" text-rendering="geometricPrecision" project-id="000a8a3bc34b4760a1346b9e82e426f0" export-id="5c260fce391f4444a54e1232c85ea585" cached="false"><g transform="matrix(2.969574 0 0 2.751078-3750.304873-1859.887084)"><path d="M1616.20577,1080c0-164.45252,136.01331-297.76764,303.79423-297.76764s303.79423,133.31511,303.79423,297.76764-136.01331,297.76764-303.79423,297.76764-303.79423-133.31511-303.79423-297.76764ZM1920,1354.07628c151.36815,0,274.07628-122.70813,274.07628-274.07628s-122.70813-274.07628-274.07628-274.07628-274.07628,122.70813-274.07628,274.07628s122.70813,274.07628,274.07628,274.07628Z" fill="#fff" stroke-width="0"/><path d="M1667.56285,1080c0-139.41719,113.01996-252.43715,252.43715-252.43715s252.43715,113.01996,252.43715,252.43715-113.01996,252.43715-252.43715,252.43715-252.43715-113.01996-252.43715-252.43715ZM1920,1307.09002c125.41835,0,227.09002-101.67166,227.09002-227.09002s-101.67166-227.09002-227.09002-227.09002-227.09002,101.67166-227.09002,227.09002s101.67166,227.09002,227.09002,227.09002Z" fill="#fff" stroke-width="0"/><path d="M1714.44085,1080c0-113.52719,92.03197-205.55915,205.55915-205.55915s205.55915,92.03197,205.55915,205.55915-92.03197,205.55915-205.55915,205.55915-205.55915-92.03197-205.55915-205.55915ZM1920,1265.97868c102.71319,0,185.97868-83.26549,185.97868-185.97868s-83.26549-185.97868-185.97868-185.97868-185.97868,83.26549-185.97868,185.97868s83.26549,185.97868,185.97868,185.97868Z" fill="#fff" stroke-width="0"/><path d="M1757.50921,1080c0-89.74118,72.7496-162.49079,162.49079-162.49079s162.49079,72.7496,162.49079,162.49079-72.7496,162.49079-162.49079,162.49079-162.49079-72.7496-162.49079-162.49079ZM1920,1220.95245c77.84589,0,140.95245-63.10656,140.95245-140.95245s-63.10656-140.95245-140.95245-140.95245-140.95245,63.10656-140.95245,140.95245s63.10656,140.95245,140.95245,140.95245Z" fill="#fff" stroke-width="0"/><path d="M1802.53523,1080c0-64.874,52.59077-117.46477,117.46477-117.46477s117.46477,52.59077,117.46477,117.46477-52.59077,117.46477-117.46477,117.46477-117.46477-52.59077-117.46477-117.46477ZM1920,1179.84111c55.14072,0,99.84111-44.70039,99.84111-99.84111s-44.70039-99.84111-99.84111-99.84111-99.84111,44.70039-99.84111,99.84111s44.70039,99.84111,99.84111,99.84111Z" fill="#fff" stroke-width="0"/><path d="M1841.68829,1080c0-43.25036,35.06135-78.31171,78.31171-78.31171s78.31171,35.06135,78.31171,78.31171-35.06135,78.31171-78.31171,78.31171-78.31171-35.06135-78.31171-78.31171ZM1920,1136.7728c31.35475,0,56.7728-25.41805,56.7728-56.7728s-25.41805-56.7728-56.7728-56.7728-56.7728,25.41805-56.7728,56.7728s25.41805,56.7728,56.7728,56.7728Z" fill="#fff" stroke-width="0"/></g><path d="M1804.12774,1111.27721c0-75.28812,65.88106-136.3212,147.14947-136.3212s147.14947,61.03308,147.14947,136.3212-65.88106,136.3212-147.14947,136.3212-147.14947-61.03308-147.14947-136.3212Zm147.14947,115.47248c68.83936,0,124.6447-51.69879,124.6447-115.47248s-55.80533-115.47248-124.6447-115.47248-124.6447,51.69879-124.6447,115.47248s55.80533,115.47248,124.6447,115.47248Z" fill="#fffefe" stroke-width="0"/><path d="M1836.45632,1111.27721c0-58.74662,51.40706-106.37016,114.82089-106.37016s114.82089,47.62354,114.82089,106.37016-51.40706,106.37016-114.82089,106.37016-114.82089-47.62354-114.82089-106.37016Zm114.82089,95.68218c57.04123,0,103.28228-42.83837,103.28228-95.68218s-46.24105-95.68218-103.28228-95.68218-103.28228,42.83837-103.28228,95.68218s46.24105,95.68218,103.28228,95.68218Z" transform="translate(.000001 0)" fill="#fffefe" stroke-width="0"/><path d="M1857.77355,1111.27721c0-47.84866,41.86301-86.63767,93.50365-86.63767s93.50365,38.78901,93.50365,86.63767-41.86301,86.63767-93.50365,86.63767-93.50365-38.78901-93.50365-86.63767Zm93.50366,78.36632c46.71888,0,84.59202-35.0858,84.59202-78.36632s-37.87314-78.36632-84.59202-78.36632-84.59202,35.0858-84.59202,78.36632s37.87314,78.36632,84.59202,78.36632Z" fill="#fffefe" stroke-width="0"/><path d="M1877.36126,1111.27721c0-37.82363,33.0933-68.48573,73.91595-68.48573s73.91595,30.66211,73.91595,68.48573-33.0933,68.48573-73.91595,68.48573-73.91595-30.66211-73.91595-68.48573Zm73.91595,59.37865c35.39856,0,64.09477-26.58473,64.09477-59.37865s-28.69621-59.37865-64.09477-59.37865-64.09477,26.58473-64.09477,59.37865s28.69621,59.37865,64.09477,59.37865Z" fill="#fffefe" stroke-width="0"/><path d="M1897.84329,1111.27721c0-27.33706,23.92318-49.49813,53.43392-49.49813s53.43392,22.16107,53.43392,49.49813-23.92318,49.49813-53.43392,49.49813-53.43392-22.16107-53.43392-49.49813Zm53.43392,42.06373c25.07622,0,45.40451-18.83257,45.40451-42.06373s-20.32829-42.06373-45.40451-42.06373-45.40451,18.83257-45.40451,42.06373s20.32829,42.06373,45.40451,42.06373Z" fill="#fffefe" stroke-width="0"/><path d="M1915.6698,1111.27721c0-18.21914,15.94198-32.98866,35.6074-32.98866s35.6074,14.76953,35.6074,32.98866-15.94198,32.98866-35.6074,32.98866-35.6074-14.76953-35.6074-32.98866Zm35.60741,23.93442c14.26943,0,25.83709-10.7158,25.83709-23.93442s-11.56766-23.93442-25.83709-23.93442-25.83709,10.7158-25.83709,23.93442s11.56766,23.93442,25.83709,23.93442Z" fill="#fffefe" stroke-width="0"/></svg>
